<?xml version="1.0" encoding="iso-8859-1"?>
<!DOCTYPE svg PUBLIC "-//W3C//DTD SVG 1.1//EN" "http://www.w3.org/Graphics/SVG/1.1/DTD/svg11.dtd">
<svg 
 version="1.1" xmlns="http://www.w3.org/2000/svg" xmlns:xlink="http://www.w3.org/1999/xlink" x="0px" y="0px" width="512px"
	 height="512px" viewBox="0 0 512 512" enable-background="new 0 0 512 512" xml:space="preserve"
><g id="5151e0c8492e5103c096af88a523e535"><g></g><g fill="#2b59a2"><path display="inline" d="M498.889,124.946c-1.38-4.922-8.647-28.429-23.192-31.912c-3.262-0.778-6.867-0.598-10.73,0.543
		c-1.79,0.531-3.513,1.229-5.119,2.003l-2.643-21.031c-0.117-0.954-0.443-1.874-0.937-2.702c-0.327-0.54-8.205-13.223-24.958-13.507
		c-7.285-0.125-14.16,1.727-19.044,4.445l-0.594-10.125c-0.151-7.569-5.972-22.49-26.856-22.929
		c-6.021-0.125-11.392,0.493-15.95,1.844c-15.473,4.579-18.919,16.778-18.575,22.586l0.836,16.418
		c-0.042,0.059-0.084,0.117-0.117,0.176c-5.495-0.882-12.487-1.326-18.76,0.351l-0.795,0.226
		c-15.623,4.625-19.253,19.316-18.985,26.442c0,0.125,0.017,0.247,0.025,0.376l11.24,121.643c-2.434-1.568-5.169-3.659-7.962-6.419
		c-4.449-4.396-8.656-10.367-13.123-16.694c-9.2-13.056-19.638-27.855-36.173-33.877c-7.611-2.777-14.286-3.346-19.831-1.706
		c-6.072,1.798-8.665,5.679-9.125,6.436c-0.101,0.176-0.201,0.352-0.293,0.531c-1.618,3.325-5.188,17.656,18.2,61.357
		c-0.87-0.13-1.784-0.226-2.793-0.226c-5.779,0-12.019,2.442-18.534,7.264c-14.143,10.467-19.948,27.621-25.066,42.755
		c-2.484,7.331-4.826,14.256-7.837,19.73c-1.898,3.441-3.922,6.223-5.813,8.418l-23.762-119.832
		c-0.025-0.125-0.05-0.247-0.083-0.368c-1.765-6.904-9.417-19.96-25.71-19.96l-0.828,0.008c-6.491,0.176-13.073,2.584-18.083,4.985
		c-0.05-0.046-0.109-0.088-0.167-0.134l-3.855-15.979c-1.322-5.667-8.088-16.38-24.23-16.38c-4.75,0-10.07,0.928-15.816,2.76
		c-19.897,6.348-21.244,22.306-19.237,29.608l2.309,9.877c-5.462-1.221-12.579-1.045-19.53,1.146
		c-15.975,5.027-19.931,19.425-20.089,20.036c-0.243,0.932-0.293,1.907-0.134,2.856l3.438,20.918
		c-1.765-0.285-3.613-0.468-5.479-0.468c-4.031,0-7.544,0.853-10.446,2.526c-12.956,7.469-13.257,32.07-13.173,37.181
		c0.217,4.273,5.888,105.425,46.385,174.229c20.391,34.639,47.908,41.911,67.396,41.911c14.82,0,26.806-4.148,31.757-6.168
		c3.036,0.694,7.653,1.4,13.148,1.4c16.334,0,46.235-6.456,62.987-49.693c40.061-103.367,47.348-152.476,46.411-175.526
		c14.318,23.464,34.688,53.123,63.64,90.613c28.345,36.696,58.848,34.4,74.505,29.763c5.269-1.56,9.501-3.546,12.211-5.072
		c5.319,0.53,17.99,1.104,32.2-3.104c18.685-5.532,43.007-20.319,52.726-59.32C523.169,227.707,499.884,129.106,498.889,124.946z
		 M209.385,422.867c-13.106,33.823-34.526,40.924-50.191,40.924c-6.884,0-11.609-1.438-11.659-1.455v0.004
		c-1.665-0.522-3.479-0.393-5.06,0.372c-0.117,0.055-12.312,5.847-28.186,5.847c-23.143,0-41.836-11.826-55.569-35.149
		C19.954,367.541,14.267,266.443,14.225,265.69c-0.134-9.952,2.434-22.603,6.315-24.84c0.77-0.443,2.041-0.69,3.588-0.69
		c3.187,0,6.842,1.004,9.217,1.823l17.422,86.439c0.661,3.263,3.521,5.508,6.725,5.508c0.443,0,0.903-0.046,1.363-0.134
		c3.713-0.748,6.122-4.37,5.37-8.084L40.002,205.518c0.995-2.283,3.855-7.239,10.513-9.334c2.769-0.87,5.453-1.313,7.971-1.313
		c8.013,0,12.211,4.445,12.32,4.554c0.134,0.155,0.284,0.28,0.435,0.422l23.686,108.658c0.703,3.212,3.538,5.403,6.699,5.403
		c0.485,0,0.979-0.051,1.464-0.155c3.705-0.812,6.055-4.466,5.244-8.171L76.911,168.696c-0.251-0.937-2.149-9.246,10.112-13.156
		c4.391-1.401,8.305-2.112,11.643-2.112c8.732,0,10.614,4.947,10.873,5.83l30.218,145.454c0.635,3.287,3.504,5.57,6.733,5.57
		c0.426,0,0.87-0.038,1.305-0.126c3.722-0.715,6.156-4.307,5.445-8.028l-22.373-116.537c4.098-2.162,9.727-4.533,14.502-4.663
		l0.46-0.004c9.15,0,11.969,8.146,12.378,9.526l26.003,131.135c0.418,2.129,1.832,3.936,3.789,4.863
		c1.965,0.937,4.249,0.878,6.164-0.138c1.104-0.59,11.015-6.151,19.053-20.742c3.604-6.545,6.139-14.03,8.815-21.955
		c4.7-13.871,9.551-28.215,20.232-36.119c5.378-3.981,8.807-4.575,10.371-4.575c0.477,0,0.845,0.05,1.121,0.113
		C255.411,247.646,263.624,282.895,209.385,422.867z M490.559,301.86c-6.549,26.258-21.118,42.905-43.308,49.476
		c-15.214,4.504-28.554,2.417-28.688,2.396c-1.731-0.285-3.505,0.108-4.951,1.078v-0.004c-0.042,0.029-4.174,2.752-10.773,4.705
		c-15.013,4.445-37.569,3.722-59.742-24.991c-91.75-118.811-93.875-154.938-93.599-159.835c0.25-0.138,0.585-0.293,1.045-0.427
		c1.497-0.443,4.951-0.849,11.241,1.443c12.487,4.546,21.211,16.92,29.649,28.893c4.826,6.837,9.376,13.294,14.695,18.547
		c11.843,11.705,22.925,14.227,24.154,14.482c2.125,0.426,4.333-0.167,5.947-1.619s2.45-3.58,2.25-5.742L326.186,97.14
		c0-1.438,0.393-10.049,9.166-12.646l0.443-0.129c4.617-1.229,10.681-0.557,15.23,0.355l11.626,118.092
		c0.376,3.768,3.738,6.523,7.502,6.151c0.443-0.038,0.879-0.125,1.288-0.247c3.095-0.916,5.202-3.927,4.876-7.256L363.998,53.41
		c0-0.916,0.401-6.193,8.765-8.673c3.204-0.945,7.16-1.38,11.769-1.279c12.863,0.268,13.407,8.773,13.424,9.744l8.74,140.177
		c0.275,3.776,3.563,6.62,7.343,6.344c0.502-0.038,0.987-0.13,1.447-0.268c3.036-0.895,5.136-3.805,4.893-7.084L412.24,81.458
		c0.101-0.176,0.218-0.339,0.301-0.527c0.067-0.134,2.836-5.591,10.521-7.866c2.409-0.715,5.11-1.054,8.013-1.003
		c6.976,0.121,11.133,4.056,12.729,5.967l10.898,122.124c0.335,3.776,3.672,6.565,7.443,6.227c0.469-0.042,0.92-0.129,1.347-0.255
		c3.069-0.912,5.178-3.877,4.885-7.193l-7.837-87.828c2.049-1.459,5.27-3.458,8.322-4.366c1.48-0.439,2.776-0.561,3.638-0.355
		c4.357,1.041,10.404,12.445,13.106,22.026C485.774,129.14,509.025,227.695,490.559,301.86z"></path></g></g></svg>